
                <svg id="trend-chart" width="660" height="400" title="Stack Overflow Trends Chart" version="1.1" xmlns="http://www.w3.org/2000/svg"><g></g><g class="chart-area" transform="translate(100, 20)"><g transform="translate(0,300)" fill="none" font-size="10" font-family="sans-serif" text-anchor="middle"><path class="domain" stroke="#000" d="M0.5,6V0.5H410.5V6"></path><g class="tick" opacity="1" transform="translate(19.265970515970515,0)"><line stroke="#000" y2="6" x1="0.5" x2="0.5"></line><text fill="#000" y="9" x="0.5" dy="0.71em" style="font-size: 12px;">2009</text></g><g class="tick" opacity="1" transform="translate(65.22727272727272,0)"><line stroke="#000" y2="6" x1="0.5" x2="0.5"></line><text fill="#000" y="9" x="0.5" dy="0.71em" style="font-size: 12px;">2010</text></g><g class="tick" opacity="1" transform="translate(111.18857493857494,0)"><line stroke="#000" y2="6" x1="0.5" x2="0.5"></line><text fill="#000" y="9" x="0.5" dy="0.71em" style="font-size: 12px;">2011</text></g><g class="tick" opacity="1" transform="translate(157.14987714987714,0)"><line stroke="#000" y2="6" x1="0.5" x2="0.5"></line><text fill="#000" y="9" x="0.5" dy="0.71em" style="font-size: 12px;">2012</text></g><g class="tick" opacity="1" transform="translate(203.23710073710072,0)"><line stroke="#000" y2="6" x1="0.5" x2="0.5"></line><text fill="#000" y="9" x="0.5" dy="0.71em" style="font-size: 12px;">2013</text></g><g class="tick" opacity="1" transform="translate(249.19840294840296,0)"><line stroke="#000" y2="6" x1="0.5" x2="0.5"></line><text fill="#000" y="9" x="0.5" dy="0.71em" style="font-size: 12px;">2014</text></g><g class="tick" opacity="1" transform="translate(295.15970515970514,0)"><line stroke="#000" y2="6" x1="0.5" x2="0.5"></line><text fill="#000" y="9" x="0.5" dy="0.71em" style="font-size: 12px;">2015</text></g><g class="tick" opacity="1" transform="translate(341.12100737100735,0)"><line stroke="#000" y2="6" x1="0.5" x2="0.5"></line><text fill="#000" y="9" x="0.5" dy="0.71em" style="font-size: 12px;">2016</text></g><g class="tick" opacity="1" transform="translate(387.20823095823096,0)"><line stroke="#000" y2="6" x1="0.5" x2="0.5"></line><text fill="#000" y="9" x="0.5" dy="0.71em" style="font-size: 12px;">2017</text></g></g><g class="grid-lines" transform="translate(0,300)" fill="none" font-size="10" font-family="sans-serif" text-anchor="middle"><path class="domain" stroke="#000" d="M0.5,-300V0.5H410.5V-300"></path><g class="tick" opacity="1" transform="translate(19.265970515970515,0)"><line stroke="#000" y2="-300" x1="0.5" x2="0.5" style="stroke: #ccc; fill: none;"></line></g><g class="tick" opacity="1" transform="translate(65.22727272727272,0)"><line stroke="#000" y2="-300" x1="0.5" x2="0.5" style="stroke: #ccc; fill: none;"></line></g><g class="tick" opacity="1" transform="translate(111.18857493857494,0)"><line stroke="#000" y2="-300" x1="0.5" x2="0.5" style="stroke: #ccc; fill: none;"></line></g><g class="tick" opacity="1" transform="translate(157.14987714987714,0)"><line stroke="#000" y2="-300" x1="0.5" x2="0.5" style="stroke: #ccc; fill: none;"></line></g><g class="tick" opacity="1" transform="translate(203.23710073710072,0)"><line stroke="#000" y2="-300" x1="0.5" x2="0.5" style="stroke: #ccc; fill: none;"></line></g><g class="tick" opacity="1" transform="translate(249.19840294840296,0)"><line stroke="#000" y2="-300" x1="0.5" x2="0.5" style="stroke: #ccc; fill: none;"></line></g><g class="tick" opacity="1" transform="translate(295.15970515970514,0)"><line stroke="#000" y2="-300" x1="0.5" x2="0.5" style="stroke: #ccc; fill: none;"></line></g><g class="tick" opacity="1" transform="translate(341.12100737100735,0)"><line stroke="#000" y2="-300" x1="0.5" x2="0.5" style="stroke: #ccc; fill: none;"></line></g><g class="tick" opacity="1" transform="translate(387.20823095823096,0)"><line stroke="#000" y2="-300" x1="0.5" x2="0.5" style="stroke: #ccc; fill: none;"></line></g></g><text x="205" y="360" class="axis-label x-axis-label" style="text-anchor: middle; font-weight: bold;">Year</text><g fill="none" font-size="10" font-family="sans-serif" text-anchor="end"><path class="domain" stroke="#000" d="M-6,300.5H0.5V0.5H-6"></path><g class="tick" opacity="1" transform="translate(0,300)"><line stroke="#000" x2="-6" y1="0.5" y2="0.5"></line><text fill="#000" x="-9" y="0.5" dy="0.32em" style="font-size: 12px;">0.00%</text></g><g class="tick" opacity="1" transform="translate(0,262.5)"><line stroke="#000" x2="-6" y1="0.5" y2="0.5"></line><text fill="#000" x="-9" y="0.5" dy="0.32em" style="font-size: 12px;">0.50%</text></g><g class="tick" opacity="1" transform="translate(0,225)"><line stroke="#000" x2="-6" y1="0.5" y2="0.5"></line><text fill="#000" x="-9" y="0.5" dy="0.32em" style="font-size: 12px;">1.00%</text></g><g class="tick" opacity="1" transform="translate(0,187.5)"><line stroke="#000" x2="-6" y1="0.5" y2="0.5"></line><text fill="#000" x="-9" y="0.5" dy="0.32em" style="font-size: 12px;">1.50%</text></g><g class="tick" opacity="1" transform="translate(0,150)"><line stroke="#000" x2="-6" y1="0.5" y2="0.5"></line><text fill="#000" x="-9" y="0.5" dy="0.32em" style="font-size: 12px;">2.00%</text></g><g class="tick" opacity="1" transform="translate(0,112.5)"><line stroke="#000" x2="-6" y1="0.5" y2="0.5"></line><text fill="#000" x="-9" y="0.5" dy="0.32em" style="font-size: 12px;">2.50%</text></g><g class="tick" opacity="1" transform="translate(0,75)"><line stroke="#000" x2="-6" y1="0.5" y2="0.5"></line><text fill="#000" x="-9" y="0.5" dy="0.32em" style="font-size: 12px;">3.00%</text></g><g class="tick" opacity="1" transform="translate(0,37.49999999999994)"><line stroke="#000" x2="-6" y1="0.5" y2="0.5"></line><text fill="#000" x="-9" y="0.5" dy="0.32em" style="font-size: 12px;">3.50%</text></g><g class="tick" opacity="1" transform="translate(0,0)"><line stroke="#000" x2="-6" y1="0.5" y2="0.5"></line><text fill="#000" x="-9" y="0.5" dy="0.32em" style="font-size: 12px;">4.00%</text></g></g><g class="grid-lines" fill="none" font-size="10" font-family="sans-serif" text-anchor="end"><path class="domain" stroke="#000" d="M410,300.5H0.5V0.5H410"></path><g class="tick" opacity="1" transform="translate(0,300)"><line stroke="#000" x2="410" y1="0.5" y2="0.5" style="stroke: #ccc; fill: none;"></line></g><g class="tick" opacity="1" transform="translate(0,262.5)"><line stroke="#000" x2="410" y1="0.5" y2="0.5" style="stroke: #ccc; fill: none;"></line></g><g class="tick" opacity="1" transform="translate(0,225)"><line stroke="#000" x2="410" y1="0.5" y2="0.5" style="stroke: #ccc; fill: none;"></line></g><g class="tick" opacity="1" transform="translate(0,187.5)"><line stroke="#000" x2="410" y1="0.5" y2="0.5" style="stroke: #ccc; fill: none;"></line></g><g class="tick" opacity="1" transform="translate(0,150)"><line stroke="#000" x2="410" y1="0.5" y2="0.5" style="stroke: #ccc; fill: none;"></line></g><g class="tick" opacity="1" transform="translate(0,112.5)"><line stroke="#000" x2="410" y1="0.5" y2="0.5" style="stroke: #ccc; fill: none;"></line></g><g class="tick" opacity="1" transform="translate(0,75)"><line stroke="#000" x2="410" y1="0.5" y2="0.5" style="stroke: #ccc; fill: none;"></line></g><g class="tick" opacity="1" transform="translate(0,37.49999999999994)"><line stroke="#000" x2="410" y1="0.5" y2="0.5" style="stroke: #ccc; fill: none;"></line></g><g class="tick" opacity="1" transform="translate(0,0)"><line stroke="#000" x2="410" y1="0.5" y2="0.5" style="stroke: #ccc; fill: none;"></line></g></g><g class="lines"><path class="line" d="M3.9035626535626538,300L7.681203931203931,300L11.584766584766585,300L15.362407862407862,300L19.265970515970515,300L23.16953316953317,300L26.695331695331696,300L30.598894348894348,300L34.37653562653563,300L38.28009828009828,300L42.05773955773956,300L45.96130221130221,300L49.86486486486487,300L53.64250614250615,300L57.546068796068795,300L61.323710073710075,300L65.22727272727272,300L69.13083538083539,300L72.65663390663391,300L76.56019656019656,300L80.33783783783784,300L84.2414004914005,300L88.01904176904176,300L91.92260442260442,300L95.82616707616708,300L99.60380835380836,300L103.50737100737102,300L107.2850122850123,300L111.18857493857494,300L115.09213759213759,300L118.61793611793611,300L122.52149877149877,300L126.29914004914005,300L130.20270270270268,300L133.98034398034397,300L137.88390663390663,300L141.7874692874693,300L145.5651105651106,300L149.46867321867322,300L153.2463144963145,300L157.14987714987714,300L161.0534398034398,300L164.7051597051597,300L168.60872235872236,300L172.38636363636365,300L176.28992628992629,300L180.06756756756758,300L183.9711302211302,300L187.87469287469287,300L191.65233415233416,300L195.5558968058968,300L199.3335380835381,300L203.23710073710072,300L207.1406633906634,300L210.66646191646188,300L214.5700245700246,300L218.34766584766584,299.9565L222.25122850122852,299.90775L226.02886977886976,299.9175L229.93243243243245,299.95725L233.8359950859951,299.601L237.61363636363637,299.80125L241.51719901719903,299.709L245.2948402948403,299.0685L249.19840294840296,298.17525L253.10196560196562,298.1655L256.6277641277641,298.413L260.5313267813268,298.75725L264.3089680589681,297.3435L268.21253071253074,296.94075L271.99017199017203,296.694L275.89373464373466,296.64075L279.7972972972973,295.809L283.5749385749386,294.366L287.4785012285012,293.0565L291.2561425061425,292.02975L295.15970515970514,291.2145L299.0632678132678,285.56775L302.58906633906633,285.35175L306.492628992629,282.4755L310.27027027027026,282.681L314.17383292383295,279.40725L317.95147420147424,275.83050000000003L321.8550368550369,275.54025L325.7585995085995,269.163L329.5362407862408,267.16725L333.4398034398034,260.8185L337.2174447174447,257.03475000000003L341.12100737100735,253.23825L345.02457002457004,255.13125L348.67628992628994,246.8295L352.57985257985257,244.3275L356.35749385749386,240.3285L360.2610565110565,233.781L364.0386977886978,224.62125L367.9422604422604,219.79874999999998L371.8458230958231,223.55849999999998L375.62346437346434,224.10075L379.52702702702703,221.51850000000002L383.3046683046683,211.59974999999997L387.20823095823096,208.638L391.1117936117936,208.24425L394.63759213759215,209.20725L398.5411547911548,196.03275L402.3187960687961,186.0555L406.2223587223587,178.3995L410,171.99450000000002" data-legend="reactjs" style="stroke: rgb(31, 119, 180); fill: none;"></path><path class="line" d="M3.9035626535626538,300L7.681203931203931,300L11.584766584766585,300L15.362407862407862,300L19.265970515970515,300L23.16953316953317,300L26.695331695331696,300L30.598894348894348,300L34.37653562653563,300L38.28009828009828,300L42.05773955773956,300L45.96130221130221,300L49.86486486486487,300L53.64250614250615,300L57.546068796068795,300L61.323710073710075,300L65.22727272727272,300L69.13083538083539,300L72.65663390663391,300L76.56019656019656,300L80.33783783783784,300L84.2414004914005,300L88.01904176904176,300L91.92260442260442,300L95.82616707616708,300L99.60380835380836,300L103.50737100737102,300L107.2850122850123,300L111.18857493857494,300L115.09213759213759,300L118.61793611793611,300L122.52149877149877,300L126.29914004914005,300L130.20270270270268,300L133.98034398034397,300L137.88390663390663,300L141.7874692874693,300L145.5651105651106,300L149.46867321867322,300L153.2463144963145,300L157.14987714987714,300L161.0534398034398,300L164.7051597051597,300L168.60872235872236,300L172.38636363636365,300L176.28992628992629,300L180.06756756756758,300L183.9711302211302,300L187.87469287469287,300L191.65233415233416,300L195.5558968058968,300L199.3335380835381,300L203.23710073710072,300L207.1406633906634,300L210.66646191646188,300L214.5700245700246,300L218.34766584766584,300L222.25122850122852,300L226.02886977886976,300L229.93243243243245,300L233.8359950859951,300L237.61363636363637,300L241.51719901719903,300L245.2948402948403,300L249.19840294840296,300L253.10196560196562,300L256.6277641277641,300L260.5313267813268,300L264.3089680589681,299.95875L268.21253071253074,300L271.99017199017203,300L275.89373464373466,299.95575L279.7972972972973,300L283.5749385749386,300L287.4785012285012,299.91225L291.2561425061425,300L295.15970515970514,299.9565L299.0632678132678,299.9565L302.58906633906633,299.1885L306.492628992629,299.4975L310.27027027027026,298.3395L314.17383292383295,297.6945L317.95147420147424,297.55725L321.8550368550369,297.24675L325.7585995085995,296.86275L329.5362407862408,295.23675L333.4398034398034,290.895L337.2174447174447,281.325L341.12100737100735,262.99575L345.02457002457004,258.0885L348.67628992628994,249.6645L352.57985257985257,243.06150000000002L356.35749385749386,226.84050000000002L360.2610565110565,212.54175L364.0386977886978,202.22775000000001L367.9422604422604,193.93349999999998L371.8458230958231,181.67475000000002L375.62346437346434,164.8605L379.52702702702703,167.6745L383.3046683046683,157.17525L387.20823095823096,154.10625000000002L391.1117936117936,137.77275L394.63759213759215,140.11350000000002L398.5411547911548,135.78824999999998L402.3187960687961,132.2295L406.2223587223587,117.49199999999999L410,108.47025000000002" data-legend="angular" style="stroke: rgb(255, 127, 14); fill: none;"></path><path class="line" d="M3.9035626535626538,300L7.681203931203931,300L11.584766584766585,300L15.362407862407862,300L19.265970515970515,300L23.16953316953317,300L26.695331695331696,300L30.598894348894348,300L34.37653562653563,300L38.28009828009828,300L42.05773955773956,300L45.96130221130221,300L49.86486486486487,300L53.64250614250615,300L57.546068796068795,300L61.323710073710075,300L65.22727272727272,300L69.13083538083539,300L72.65663390663391,300L76.56019656019656,300L80.33783783783784,300L84.2414004914005,300L88.01904176904176,300L91.92260442260442,300L95.82616707616708,300L99.60380835380836,300L103.50737100737102,300L107.2850122850123,300L111.18857493857494,300L115.09213759213759,300L118.61793611793611,300L122.52149877149877,300L126.29914004914005,300L130.20270270270268,300L133.98034398034397,300L137.88390663390663,300L141.7874692874693,300L145.5651105651106,300L149.46867321867322,300L153.2463144963145,300L157.14987714987714,300L161.0534398034398,300L164.7051597051597,300L168.60872235872236,300L172.38636363636365,300L176.28992628992629,300L180.06756756756758,300L183.9711302211302,300L187.87469287469287,300L191.65233415233416,300L195.5558968058968,300L199.3335380835381,300L203.23710073710072,300L207.1406633906634,300L210.66646191646188,300L214.5700245700246,300L218.34766584766584,300L222.25122850122852,300L226.02886977886976,300L229.93243243243245,300L233.8359950859951,300L237.61363636363637,300L241.51719901719903,300L245.2948402948403,300L249.19840294840296,300L253.10196560196562,300L256.6277641277641,299.96475L260.5313267813268,300L264.3089680589681,299.83425L268.21253071253074,300L271.99017199017203,299.87625L275.89373464373466,300L279.7972972972973,299.91225L283.5749385749386,299.916L287.4785012285012,299.86875L291.2561425061425,299.859L295.15970515970514,299.82375L299.0632678132678,299.9565L302.58906633906633,299.92275L306.492628992629,299.80725L310.27027027027026,299.56575L314.17383292383295,298.55475L317.95147420147424,298.34625L321.8550368550369,298.29975L325.7585995085995,297.89475L329.5362407862408,298.5045L333.4398034398034,297.3225L337.2174447174447,296.51175L341.12100737100735,294.81825L345.02457002457004,295.3695L348.67628992628994,295.494L352.57985257985257,293.148L356.35749385749386,294.16425L360.2610565110565,294.08475L364.0386977886978,293.41875L367.9422604422604,291.45525L371.8458230958231,290.60925L375.62346437346434,288.72375L379.52702702702703,286.2195L383.3046683046683,283.88775L387.20823095823096,281.75025L391.1117936117936,282.42825L394.63759213759215,277.413L398.5411547911548,277.818L402.3187960687961,274.3125L406.2223587223587,272.757L410,271.764" data-legend="vue.js" style="stroke: rgb(44, 160, 44); fill: none;"></path><path class="line" d="M3.9035626535626538,300L7.681203931203931,300L11.584766584766585,300L15.362407862407862,300L19.265970515970515,300L23.16953316953317,300L26.695331695331696,300L30.598894348894348,300L34.37653562653563,300L38.28009828009828,300L42.05773955773956,300L45.96130221130221,300L49.86486486486487,300L53.64250614250615,300L57.546068796068795,300L61.323710073710075,300L65.22727272727272,300L69.13083538083539,300L72.65663390663391,300L76.56019656019656,300L80.33783783783784,300L84.2414004914005,300L88.01904176904176,300L91.92260442260442,300L95.82616707616708,300L99.60380835380836,300L103.50737100737102,300L107.2850122850123,300L111.18857493857494,300L115.09213759213759,300L118.61793611793611,300L122.52149877149877,300L126.29914004914005,300L130.20270270270268,300L133.98034398034397,300L137.88390663390663,300L141.7874692874693,300L145.5651105651106,300L149.46867321867322,300L153.2463144963145,300L157.14987714987714,300L161.0534398034398,300L164.7051597051597,300L168.60872235872236,300L172.38636363636365,300L176.28992628992629,300L180.06756756756758,300L183.9711302211302,300L187.87469287469287,300L191.65233415233416,300L195.5558968058968,300L199.3335380835381,300L203.23710073710072,300L207.1406633906634,300L210.66646191646188,300L214.5700245700246,300L218.34766584766584,300L222.25122850122852,300L226.02886977886976,300L229.93243243243245,300L233.8359950859951,300L237.61363636363637,300L241.51719901719903,300L245.2948402948403,300L249.19840294840296,300L253.10196560196562,300L256.6277641277641,300L260.5313267813268,300L264.3089680589681,300L268.21253071253074,300L271.99017199017203,300L275.89373464373466,300L279.7972972972973,300L283.5749385749386,300L287.4785012285012,300L291.2561425061425,300L295.15970515970514,300L299.0632678132678,300L302.58906633906633,300L306.492628992629,300L310.27027027027026,300L314.17383292383295,300L317.95147420147424,300L321.8550368550369,300L325.7585995085995,300L329.5362407862408,300L333.4398034398034,300L337.2174447174447,300L341.12100737100735,300L345.02457002457004,299.96175L348.67628992628994,300L352.57985257985257,300L356.35749385749386,299.96175L360.2610565110565,300L364.0386977886978,299.95875L367.9422604422604,300L371.8458230958231,299.7L375.62346437346434,298.57275L379.52702702702703,297.222L383.3046683046683,293.79375L387.20823095823096,290.2155L391.1117936117936,287.1705L394.63759213759215,284.26575L398.5411547911548,285.22425L402.3187960687961,284.00925L406.2223587223587,282.9735L410,281.6205" data-legend="vuejs2" style="stroke: rgb(214, 39, 40); fill: none;"></path><path class="line" d="M3.9035626535626538,300L7.681203931203931,300L11.584766584766585,300L15.362407862407862,300L19.265970515970515,300L23.16953316953317,300L26.695331695331696,300L30.598894348894348,300L34.37653562653563,300L38.28009828009828,300L42.05773955773956,300L45.96130221130221,300L49.86486486486487,300L53.64250614250615,299.796L57.546068796068795,300L61.323710073710075,300L65.22727272727272,300L69.13083538083539,300L72.65663390663391,300L76.56019656019656,300L80.33783783783784,300L84.2414004914005,300L88.01904176904176,300L91.92260442260442,300L95.82616707616708,300L99.60380835380836,300L103.50737100737102,299.89425L107.2850122850123,300L111.18857493857494,300L115.09213759213759,300L118.61793611793611,299.92725L122.52149877149877,300L126.29914004914005,299.92725L130.20270270270268,300L133.98034398034397,299.85375L137.88390663390663,299.93175L141.7874692874693,299.856L145.5651105651106,299.7825L149.46867321867322,299.9325L153.2463144963145,299.9295L157.14987714987714,299.937L161.0534398034398,299.823L164.7051597051597,299.61675L168.60872235872236,299.4315L172.38636363636365,298.14675L176.28992628992629,295.9035L180.06756756756758,295.04775L183.9711302211302,290.907L187.87469287469287,289.5945L191.65233415233416,285.93L195.5558968058968,284.88975L199.3335380835381,281.289L203.23710073710072,271.54425L207.1406633906634,267.5265L210.66646191646188,260.94975L214.5700245700246,252.207L218.34766584766584,245.7405L222.25122850122852,241.62L226.02886977886976,230.67525L229.93243243243245,216.75074999999998L233.8359950859951,212.13225L237.61363636363637,211.17450000000002L241.51719901719903,209.00549999999998L245.2948402948403,203.77725L249.19840294840296,187.48725000000002L253.10196560196562,180.5235L256.6277641277641,175.6395L260.5313267813268,166.182L264.3089680589681,147.6585L268.21253071253074,133.86075L271.99017199017203,119.56049999999999L275.89373464373466,108.55875L279.7972972972973,111.51075L283.5749385749386,110.37675000000002L287.4785012285012,113.48999999999998L291.2561425061425,102.47774999999999L295.15970515970514,93.15L299.0632678132678,97.15725L302.58906633906633,93.68100000000001L306.492628992629,91.67550000000003L310.27027027027026,70.77675000000002L314.17383292383295,64.1745L317.95147420147424,51.05024999999998L321.8550368550369,51.266250000000014L325.7585995085995,54.37350000000001L329.5362407862408,57.96224999999998L333.4398034398034,59.55449999999999L337.2174447174447,53.98949999999999L341.12100737100735,42.909749999999974L345.02457002457004,57.79275000000001L348.67628992628994,62.059499999999986L352.57985257985257,62.74725000000001L356.35749385749386,55.90199999999999L360.2610565110565,54.854250000000036L364.0386977886978,57.80325000000002L367.9422604422604,57.70875000000001L371.8458230958231,70.86225000000002L375.62346437346434,97.16175000000001L379.52702702702703,104.32575L383.3046683046683,102.1935L387.20823095823096,110.89875L391.1117936117936,128.95049999999998L394.63759213759215,131.2305L398.5411547911548,144.40425000000002L402.3187960687961,151.35075000000003L406.2223587223587,161.47875000000002L410,172.02824999999996" data-legend="angularjs" style="stroke: rgb(148, 103, 189); fill: none;"></path></g></g><g transform="translate(20, 150)"><text transform="rotate(-90)" x="-50" y="0" dy="1em" class="axis-label y-axis-label" style="text-anchor: middle; font-weight: bold;">% of Stack Overflow questions that month</text></g><g class="legend" transform="translate(530, 30)" style="font-size: 12px;"><text class="legend-title" style="font-weight: bold;">Tag</text><g class="legend-items" transform="translate(0,20)"><text y="0em" x="1em">angularjs</text><text y="1em" x="1em">angular</text><text y="2em" x="1em">reactjs</text><text y="3em" x="1em">vue.js</text><text y="4em" x="1em">vuejs2</text><circle cy="-0.25em" cx="0" r="0.4em" style="fill: rgb(148, 103, 189);"></circle><circle cy="0.75em" cx="0" r="0.4em" style="fill: rgb(255, 127, 14);"></circle><circle cy="1.75em" cx="0" r="0.4em" style="fill: rgb(31, 119, 180);"></circle><circle cy="2.75em" cx="0" r="0.4em" style="fill: rgb(44, 160, 44);"></circle><circle cy="3.75em" cx="0" r="0.4em" style="fill: rgb(214, 39, 40);"></circle></g><rect class="legend-box"></rect></g></svg>
            